<svg xmlns="http://www.w3.org/2000/svg" xmlns:xlink="http://www.w3.org/1999/xlink" viewBox="0 0 905.17 828.91"><defs><linearGradient id="linear-gradient" x1="938.71" y1="37.71" x2="770.94" y2="183.63" gradientUnits="userSpaceOnUse"><stop offset="0" stop-color="#311944"></stop><stop offset="1" stop-color="#893976"></stop></linearGradient><linearGradient id="linear-gradient-2" x1="-6951.98" y1="-1321.94" x2="-7146.01" y2="-1439.49" gradientTransform="translate(693.81 -6952.6) rotate(-101.53)" gradientUnits="userSpaceOnUse"><stop offset="0" stop-color="#ffc444"></stop><stop offset="1" stop-color="#f36f56"></stop></linearGradient><linearGradient id="linear-gradient-3" x1="-6854.67" y1="-1262.84" x2="-7362.09" y2="-1570.26" gradientTransform="translate(693.81 -6952.6) rotate(-101.53)" gradientUnits="userSpaceOnUse"><stop offset="0" stop-color="#ff9085"></stop><stop offset="1" stop-color="#fb6fbb"></stop></linearGradient><linearGradient id="linear-gradient-4" x1="324.62" y1="244.5" x2="220.38" y2="215" gradientUnits="userSpaceOnUse"><stop offset="0" stop-color="#311944"></stop><stop offset="1" stop-color="#a03976"></stop></linearGradient><linearGradient id="linear-gradient-5" x1="324.35" y1="245.46" x2="220.11" y2="215.96" xlink:href="#linear-gradient-4"></linearGradient><linearGradient id="linear-gradient-6" x1="217.65" y1="178.62" x2="219.28" y2="310.26" gradientTransform="matrix(1, 0, 0, 1, 0, 0)" xlink:href="#linear-gradient-3"></linearGradient><linearGradient id="linear-gradient-7" x1="527.19" y1="567.39" x2="528.98" y2="634.47" gradientUnits="userSpaceOnUse"><stop offset="0" stop-color="#444b8c"></stop><stop offset="1" stop-color="#26264f"></stop></linearGradient><linearGradient id="linear-gradient-8" x1="541.8" y1="483.99" x2="344.67" y2="-208.11" xlink:href="#linear-gradient-7"></linearGradient><linearGradient id="linear-gradient-9" x1="344.64" y1="36.42" x2="703.91" y2="422.15" gradientTransform="matrix(1, 0, 0, 1, 0, 0)" xlink:href="#linear-gradient-3"></linearGradient><linearGradient id="linear-gradient-10" x1="227.81" y1="540.37" x2="778.37" y2="540.37" xlink:href="#linear-gradient-7"></linearGradient><linearGradient id="linear-gradient-11" x1="399.18" y1="248.29" x2="556.53" y2="589.35" gradientUnits="userSpaceOnUse"><stop offset="0" stop-color="#e38ddd"></stop><stop offset="1" stop-color="#9571f6"></stop></linearGradient><linearGradient id="linear-gradient-12" x1="598.65" y1="172.42" x2="743.7" y2="486.83" xlink:href="#linear-gradient-11"></linearGradient><linearGradient id="linear-gradient-13" x1="425.3" y1="236.43" x2="575.92" y2="562.91" xlink:href="#linear-gradient-11"></linearGradient><linearGradient id="linear-gradient-14" x1="288.19" y1="742.01" x2="245.25" y2="760.05" gradientUnits="userSpaceOnUse"><stop offset="0" stop-color="#40447e"></stop><stop offset="1" stop-color="#3c3b6b"></stop></linearGradient><linearGradient id="linear-gradient-15" x1="230.86" y1="552.76" x2="184.25" y2="572.33" xlink:href="#linear-gradient-14"></linearGradient><linearGradient id="linear-gradient-16" x1="29.99" y1="563.35" x2="461.87" y2="563.35" xlink:href="#linear-gradient-14"></linearGradient><linearGradient id="linear-gradient-17" x1="29.99" y1="723.06" x2="641.27" y2="723.06" xlink:href="#linear-gradient-14"></linearGradient><linearGradient id="linear-gradient-18" x1="89.94" y1="718.05" x2="537.82" y2="718.05" xlink:href="#linear-gradient-14"></linearGradient><linearGradient id="linear-gradient-19" x1="197.48" y1="528.58" x2="348.03" y2="291.22" gradientTransform="matrix(1, 0, 0, 1, 0, 0)" xlink:href="#linear-gradient-3"></linearGradient><linearGradient id="linear-gradient-20" x1="163.14" y1="498.22" x2="288.71" y2="770.4" xlink:href="#linear-gradient-11"></linearGradient><linearGradient id="linear-gradient-21" x1="317.01" y1="427.1" x2="437.1" y2="687.4" xlink:href="#linear-gradient-11"></linearGradient><linearGradient id="linear-gradient-22" x1="185.96" y1="502.32" x2="300.87" y2="751.38" xlink:href="#linear-gradient-11"></linearGradient><linearGradient id="linear-gradient-23" x1="1010.35" y1="382.35" x2="1186.04" y2="382.35" gradientTransform="translate(-397.12 121.12) rotate(2.13)" xlink:href="#linear-gradient-7"></linearGradient><linearGradient id="linear-gradient-24" x1="1085.87" y1="423.37" x2="1109.63" y2="357.43" gradientTransform="translate(-397.12 121.12) rotate(2.13)" xlink:href="#linear-gradient-7"></linearGradient><linearGradient id="linear-gradient-25" x1="648.77" y1="487.93" x2="735.67" y2="361.83" gradientTransform="matrix(1, 0, 0, 1, 0, 0)" xlink:href="#linear-gradient-3"></linearGradient><linearGradient id="linear-gradient-26" x1="1092.46" y1="237.48" x2="948.29" y2="627.95" gradientTransform="translate(-397.12 121.12) rotate(2.13)" xlink:href="#linear-gradient-2"></linearGradient><linearGradient id="linear-gradient-27" x1="-445.13" y1="543.92" x2="-374.83" y2="696.3" gradientTransform="matrix(1, 0, 0.1, 0.99, 1044.14, -53.67)" xlink:href="#linear-gradient-11"></linearGradient><linearGradient id="linear-gradient-28" x1="-409.72" y1="494.84" x2="-330.06" y2="667.51" gradientTransform="matrix(1, 0, 0.1, 0.99, 1044.14, -53.67)" xlink:href="#linear-gradient-11"></linearGradient><linearGradient id="linear-gradient-29" x1="-441.38" y1="584.88" x2="-385.41" y2="706.19" gradientTransform="matrix(1, 0, 0.1, 0.99, 1044.14, -53.67)" xlink:href="#linear-gradient-11"></linearGradient><linearGradient id="linear-gradient-30" x1="-430.79" y1="658.71" x2="-393.61" y2="739.3" gradientTransform="matrix(1, 0, 0.1, 0.99, 1044.14, -53.67)" xlink:href="#linear-gradient-11"></linearGradient><linearGradient id="linear-gradient-31" x1="17.5" y1="283.07" x2="196.08" y2="283.07" gradientTransform="matrix(1, 0, 0, 1, 0, 0)" xlink:href="#linear-gradient-3"></linearGradient></defs><g style="isolation:isolate"><g id="Layer_2" data-name="Layer 2"><g id="Layer_1-2" data-name="Layer 1"><path d="M204.45,49.82c-27.45,40,4.74,104.9-36,135-39.65,29.3-88.36-18.72-125.73,6.5-55.44,37.41-45.32,208.6,35.74,315,24.37,32,44.74,44.44,53.76,80.61,19.37,77.68-48.71,123.89-35.75,162.31,29.17,86.51,477.76,159.1,657.76-100.88C838.3,526.9,850.87,351.56,775.76,218.4,640-22.23,266.06-40,204.45,49.82Z" fill="#f4f7fa"></path><path d="M711.89,65.85l2.94,15.05a119,119,0,0,0-18.69,9.34l-10-11.53a7.52,7.52,0,0,0-10.67-.66L655.67,95.46a7.69,7.69,0,0,0-.78,10.77L665,117.91a124.26,124.26,0,0,0-11.61,17.46l-14.67-5a7.66,7.66,0,0,0-9.66,4.83l-8.65,25.11a7.62,7.62,0,0,0,4.66,9.74l14.72,5a122,122,0,0,0-1.48,21l-15.39,3.14a7.82,7.82,0,0,0-6.07,9.11l4.89,26.23a7.55,7.55,0,0,0,8.92,6.09l15.44-3.15a122,122,0,0,0,9,19l-11.88,10.55a7.93,7.93,0,0,0-.79,11l17.32,20.29a7.56,7.56,0,0,0,10.83.71l11.87-10.58a120.42,120.42,0,0,0,17.39,11.9l-5.11,15.19a7.87,7.87,0,0,0,4.77,10l25.17,8.72a7.69,7.69,0,0,0,9.79-4.94l5-15.06a117.36,117.36,0,0,0,21.11,1.4l3.05,15.6a7.72,7.72,0,0,0,9.08,6.19l26.14-5.34a7.85,7.85,0,0,0,6-9.27l-3.06-15.46A119.58,119.58,0,0,0,821,297.94l10.19,11.75a7.61,7.61,0,0,0,10.89.72L862,292.49a7.92,7.92,0,0,0,.63-11.07l-10.15-11.66a123,123,0,0,0,11.75-18l14.45,4.94a7.63,7.63,0,0,0,9.73-4.9l8.3-25.52a7.85,7.85,0,0,0-4.9-9.85l-14.31-4.87a123.57,123.57,0,0,0,1.18-21.48l14.76-3a7.68,7.68,0,0,0,5.94-9.12L894,151.83a7.71,7.71,0,0,0-9.05-6l-14.72,3a120.29,120.29,0,0,0-9.49-19.12l11.18-10a7.68,7.68,0,0,0,.62-10.82L855,89.13a7.59,7.59,0,0,0-10.74-.67L833,98.47a119.93,119.93,0,0,0-17.57-11.64l4.78-14.33a7.6,7.6,0,0,0-4.79-9.62l-24.82-8.32a7.59,7.59,0,0,0-9.6,4.79L776.21,73.7a118.54,118.54,0,0,0-20.87-1.19l-3-14.92a7.53,7.53,0,0,0-8.89-5.92L717.86,56.9A7.65,7.65,0,0,0,711.89,65.85ZM682.64,208.54c-8.06-42.2,19.14-83.1,60.71-91.58s82.15,18.6,90.67,60.71c8.57,42.36-18.51,83.83-60.54,92.4S690.76,251,682.64,208.54Z" fill="url(#linear-gradient)"></path><path d="M746.07,140.18l1.13,5.75a46.76,46.76,0,0,0-7.15,3.57l-3.84-4.4a2.87,2.87,0,0,0-4.08-.26l-7.55,6.66a2.94,2.94,0,0,0-.3,4.12l3.87,4.47a47.42,47.42,0,0,0-4.44,6.67l-5.61-1.9a2.92,2.92,0,0,0-3.69,1.84l-3.31,9.6a2.92,2.92,0,0,0,1.78,3.73l5.63,1.92a46.56,46.56,0,0,0-.56,8l-5.89,1.2a3,3,0,0,0-2.32,3.48l1.87,10A2.89,2.89,0,0,0,715,207l5.91-1.21a46,46,0,0,0,3.45,7.29l-4.54,4a3,3,0,0,0-.3,4.21l6.62,7.76a2.89,2.89,0,0,0,4.14.28l4.54-4a46.26,46.26,0,0,0,6.65,4.55l-2,5.81a3,3,0,0,0,1.82,3.81l9.63,3.34a3,3,0,0,0,3.74-1.89l1.92-5.76a45.1,45.1,0,0,0,8.08.53l1.16,6a3,3,0,0,0,3.47,2.36l10-2a3,3,0,0,0,2.31-3.55l-1.17-5.91a46.88,46.88,0,0,0,7.3-3.64l3.89,4.49a2.91,2.91,0,0,0,4.17.27l7.62-6.85a3,3,0,0,0,.24-4.23l-3.88-4.46a47.54,47.54,0,0,0,4.49-6.88l5.53,1.89a2.92,2.92,0,0,0,3.72-1.87l3.17-9.76a3,3,0,0,0-1.87-3.77l-5.48-1.86a45.74,45.74,0,0,0,.45-8.21l5.65-1.16a2.93,2.93,0,0,0,2.27-3.48l-2.07-10a2.93,2.93,0,0,0-3.46-2.3l-5.63,1.14a47.35,47.35,0,0,0-3.62-7.31l4.27-3.81a3,3,0,0,0,.24-4.14l-6.69-7.56a2.9,2.9,0,0,0-4.11-.25l-4.3,3.82a45.48,45.48,0,0,0-6.72-4.45l1.83-5.48a2.91,2.91,0,0,0-1.83-3.68l-9.49-3.18a2.9,2.9,0,0,0-3.67,1.83l-1.85,5.49a45,45,0,0,0-8-.45L761.56,137a2.88,2.88,0,0,0-3.4-2.26l-9.8,2A2.93,2.93,0,0,0,746.07,140.18Zm-11.18,54.56a30,30,0,0,1,23.21-35,29.44,29.44,0,0,1,34.67,23.22,29.92,29.92,0,0,1-23.15,35.33A29.43,29.43,0,0,1,734.89,194.74Z" fill="url(#linear-gradient-2)"></path><path d="M717.51,60.66l2.93,15a119.31,119.31,0,0,0-18.68,9.34l-10-11.53a7.53,7.53,0,0,0-10.67-.66L661.29,90.27a7.69,7.69,0,0,0-.78,10.77l10.13,11.68A122.54,122.54,0,0,0,659,130.18l-14.67-5A7.65,7.65,0,0,0,634.7,130l-8.65,25.11a7.62,7.62,0,0,0,4.66,9.74l14.71,5a122,122,0,0,0-1.47,21l-15.4,3.14a7.84,7.84,0,0,0-6.07,9.11l4.9,26.23a7.55,7.55,0,0,0,8.92,6.09l15.44-3.15a122,122,0,0,0,9,19l-11.88,10.55a7.93,7.93,0,0,0-.79,11l17.32,20.29a7.56,7.56,0,0,0,10.83.71l11.87-10.58a121.3,121.3,0,0,0,17.39,11.91l-5.11,15.18a7.87,7.87,0,0,0,4.77,10l25.17,8.72a7.69,7.69,0,0,0,9.79-4.93l5-15.07a117.36,117.36,0,0,0,21.11,1.4l3,15.6a7.73,7.73,0,0,0,9.08,6.19L804.56,327a7.85,7.85,0,0,0,6-9.27l-3.06-15.46a118.74,118.74,0,0,0,19.08-9.52L836.8,304.5a7.62,7.62,0,0,0,10.9.72l19.93-17.92a7.92,7.92,0,0,0,.63-11.07l-10.15-11.66a122.14,122.14,0,0,0,11.74-18l14.46,4.94a7.61,7.61,0,0,0,9.72-4.9l8.31-25.52a7.85,7.85,0,0,0-4.9-9.85l-14.32-4.87a121.63,121.63,0,0,0,1.18-21.48l14.77-3a7.69,7.69,0,0,0,5.94-9.12l-5.41-26.13a7.72,7.72,0,0,0-9.05-6l-14.72,3a121.57,121.57,0,0,0-9.49-19.12l11.18-10a7.69,7.69,0,0,0,.62-10.82L860.65,83.94a7.57,7.57,0,0,0-10.73-.66l-11.26,10a119.93,119.93,0,0,0-17.57-11.64l4.78-14.32a7.61,7.61,0,0,0-4.79-9.63l-24.82-8.32a7.59,7.59,0,0,0-9.6,4.79l-4.83,14.35A117.59,117.59,0,0,0,761,67.33L758,52.4a7.53,7.53,0,0,0-8.89-5.92l-25.63,5.23A7.65,7.65,0,0,0,717.51,60.66ZM688.26,203.35c-8.06-42.2,19.14-83.1,60.71-91.58s82.15,18.6,90.67,60.71c8.57,42.36-18.51,83.83-60.54,92.4S696.38,245.8,688.26,203.35Z" fill="url(#linear-gradient-3)"></path><path d="M860,417.87l-7-1.3a51.18,51.18,0,0,0-.77-13.86l6.57-2.32a3.56,3.56,0,0,0,2.13-4.5l-1.65-4.95a3.48,3.48,0,0,0-4.4-2.25l-6.47,2.22a52.66,52.66,0,0,0-7.74-12l4.45-5.15a3.7,3.7,0,0,0-.37-5.12l-4-3.62a3.52,3.52,0,0,0-5.06.21l-4.45,5.08a53.25,53.25,0,0,0-13.16-6.87l1.28-6.79a3.93,3.93,0,0,0-3-4.48L811,350.87a3.57,3.57,0,0,0-4.4,2.79l-1.29,6.86a54.21,54.21,0,0,0-15.24.59l-2.47-6.88a4.15,4.15,0,0,0-5-2.57l-5.46,1.62a3.64,3.64,0,0,0-2.4,4.81l2.58,7.05a53.25,53.25,0,0,0-12.89,8.32l-6.1-5.14a4.22,4.22,0,0,0-5.78.23l-3.9,4.24a3.8,3.8,0,0,0,.51,5.53l6.33,5.23a51.36,51.36,0,0,0-6.56,13.67l-8.47-1.58a4.09,4.09,0,0,0-4.86,3.09l-1.06,5.65a4,4,0,0,0,3.42,4.58l8.71,1.52a50.94,50.94,0,0,0,1.62,14.79l-8.49,2.91a3.82,3.82,0,0,0-2.48,5l2.1,5.32a4.19,4.19,0,0,0,5.32,2.24l8.6-3a52.66,52.66,0,0,0,8.91,11.58l-5.9,6.75a3.62,3.62,0,0,0,.5,5.33l4.52,3.42a4.2,4.2,0,0,0,5.62-.65l5.86-6.79a53.73,53.73,0,0,0,13.28,5.46l-1.59,8.49a3.52,3.52,0,0,0,3.09,4.15l5.52.69a4,4,0,0,0,4.4-3.15l1.58-8.4a53.9,53.9,0,0,0,14-1.61l2.82,7.7a3.5,3.5,0,0,0,4.65,2l5-2a3.73,3.73,0,0,0,2.21-4.65L825,458.4a53.32,53.32,0,0,0,11.29-7.95l6,4.94a3.51,3.51,0,0,0,4.93-.57l3.34-4.05a3.53,3.53,0,0,0-.36-4.95L844.46,441a50.75,50.75,0,0,0,6-12.33l7.22,1.26a3.51,3.51,0,0,0,4-2.87l.95-5.08A3.46,3.46,0,0,0,860,417.87ZM795.38,449c-20.88-3.13-35.21-22.48-31.33-43.12s24.29-33.7,44.92-29.3c19.94,4.24,32.66,23.3,29,42.69S815.55,452.05,795.38,449Z" fill="#97a6b7"></path><polygon points="789.45 352.68 784.49 351.57 781.93 355.72 789.45 352.68" fill="#97a6b7"></polygon><polygon points="838.55 364.03 844.29 365.17 843.5 369.42 838.55 364.03" fill="#97a6b7"></polygon><polygon points="856.64 388.63 862.33 389.94 860.29 392.88 856.64 388.63" fill="#97a6b7"></polygon><polygon points="860.44 418.03 866.15 419.57 863.73 422.03 860.44 418.03" fill="#97a6b7"></polygon><polygon points="843.34 455.97 848.81 457.83 850.36 453.37 843.34 455.97" fill="#97a6b7"></polygon><polygon points="817.94 472.64 822.82 474.5 823.92 470.85 817.94 472.64" fill="#97a6b7"></polygon><polygon points="791.02 476.85 786.64 475.19 791.63 470.13 791.02 476.85" fill="#97a6b7"></polygon><polygon points="767.39 467.36 762.31 465.28 767.31 461.12 767.39 467.36" fill="#97a6b7"></polygon><polygon points="755.48 367.26 760.95 368.47 758.02 372.07 755.48 367.26" fill="#97a6b7"></polygon><polygon points="736.41 408.4 741.32 410.09 741.69 405.89 736.41 408.4" fill="#97a6b7"></polygon><polygon points="741.58 440.67 746.36 442.39 747.38 439.2 741.58 440.67" fill="#97a6b7"></polygon><path d="M865.53,419.39l-7.07-1.31a51.16,51.16,0,0,0-.77-14l6.63-2.34a3.59,3.59,0,0,0,2.14-4.54l-1.66-5a3.5,3.5,0,0,0-4.44-2.27l-6.53,2.24a52.5,52.5,0,0,0-7.8-12.13l4.49-5.19a3.73,3.73,0,0,0-.37-5.16l-4-3.65a3.56,3.56,0,0,0-5.1.2l-4.48,5.13a54,54,0,0,0-13.27-6.93l1.29-6.84a4,4,0,0,0-3-4.52l-5.45-1.28a3.6,3.6,0,0,0-4.44,2.81l-1.29,6.92a54,54,0,0,0-15.37.6l-2.5-6.94a4.17,4.17,0,0,0-5.06-2.59L782,354.27a3.67,3.67,0,0,0-2.41,4.85l2.6,7.11a53.92,53.92,0,0,0-13,8.38L763,369.43a4.25,4.25,0,0,0-5.82.23l-3.94,4.28a3.82,3.82,0,0,0,.52,5.57l6.38,5.28a51.28,51.28,0,0,0-6.61,13.78L745,397a4.11,4.11,0,0,0-4.9,3.11l-1.07,5.7a4,4,0,0,0,3.45,4.61l8.78,1.54a51.41,51.41,0,0,0,1.63,14.91l-8.56,2.93a3.85,3.85,0,0,0-2.5,5l2.12,5.37a4.22,4.22,0,0,0,5.36,2.25l8.67-3.07A53.11,53.11,0,0,0,767,451l-6,6.8a3.64,3.64,0,0,0,.5,5.37l4.56,3.46a4.22,4.22,0,0,0,5.66-.66l5.92-6.84a54.13,54.13,0,0,0,13.39,5.5l-1.61,8.56a3.54,3.54,0,0,0,3.12,4.18l5.56.71a4,4,0,0,0,4.44-3.18l1.6-8.48a54.36,54.36,0,0,0,14.09-1.61l2.84,7.76a3.53,3.53,0,0,0,4.69,2l5.06-2a3.76,3.76,0,0,0,2.22-4.69l-2.74-7.62a54.15,54.15,0,0,0,11.39-8l6,5a3.54,3.54,0,0,0,5-.57l3.36-4.08a3.55,3.55,0,0,0-.35-5l-5.81-4.9A51.88,51.88,0,0,0,856,430.25l7.27,1.27a3.55,3.55,0,0,0,4-2.89l1-5.12A3.49,3.49,0,0,0,865.53,419.39Zm-65.11,31.42c-21-3.15-35.5-22.66-31.59-43.47s24.49-34,45.3-29.54c20.1,4.28,32.93,23.49,29.26,43S820.76,453.85,800.42,450.81Z" fill="#d8dee8"></path><g opacity="0.18"><path d="M382.87,221.91l-20-3.72a144.91,144.91,0,0,0-2.18-39.53L379.43,172a10.18,10.18,0,0,0,6.08-12.85l-4.71-14.1a9.91,9.91,0,0,0-12.56-6.44L349.77,145a149.21,149.21,0,0,0-22.07-34.31L340.4,96a10.57,10.57,0,0,0-1-14.62L328.06,71a10.05,10.05,0,0,0-14.43.58L301,86.14a152.23,152.23,0,0,0-37.54-19.62L267,47.16a11.2,11.2,0,0,0-8.48-12.79l-15.42-3.63a10.19,10.19,0,0,0-12.55,8l-3.67,19.57A154,154,0,0,0,183.43,60l-7.06-19.64A11.85,11.85,0,0,0,162.06,33l-15.6,4.62a10.39,10.39,0,0,0-6.83,13.72L147,71.46a153,153,0,0,0-36.78,23.73L92.82,80.53c-4.94-4.16-12.32-3.87-16.49.66L65.2,93.29c-4.2,4.56-3.54,11.63,1.46,15.77l18,14.93A146.4,146.4,0,0,0,66,163l-24.17-4.49c-6.5-1.21-12.71,2.72-13.85,8.79l-3,16.14c-1.14,6.07,3.24,11.91,9.75,13.05l24.86,4.35A144.87,144.87,0,0,0,64.17,243L40,251.33c-6.18,2.12-9.36,8.49-7.09,14.22l6,15.19c2.26,5.69,9,8.54,15.17,6.38l24.55-8.68a150.08,150.08,0,0,0,25.43,33L87.18,330.73a10.29,10.29,0,0,0,1.4,15.2l12.9,9.77a12,12,0,0,0,16-1.86l16.74-19.36a153.15,153.15,0,0,0,37.89,15.57l-4.55,24.24a10,10,0,0,0,8.83,11.82l15.73,2a11.4,11.4,0,0,0,12.57-9l4.5-24a154,154,0,0,0,39.89-4.58l8,22a10,10,0,0,0,13.28,5.58l14.3-5.71A10.64,10.64,0,0,0,291,359.09l-7.75-21.56a152.72,152.72,0,0,0,32.23-22.68l17,14.09a10,10,0,0,0,14.07-1.63l9.52-11.54a10.08,10.08,0,0,0-1-14.12l-16.44-13.86a146.15,146.15,0,0,0,17.19-35.15l20.57,3.59A10,10,0,0,0,387.87,248l2.72-14.49A9.86,9.86,0,0,0,382.87,221.91ZM198.63,310.82c-59.57-8.91-100.45-64.12-89.39-123s69.29-96.14,128.18-83.6c56.88,12.12,93.17,66.49,82.79,121.82S256.17,319.42,198.63,310.82Z" fill="#97a6b7"></path><polygon points="181.72 35.9 167.57 32.74 160.26 44.58 181.72 35.9" fill="#97a6b7"></polygon><polygon points="321.8 68.3 338.18 71.55 335.91 83.66 321.8 68.3" fill="#97a6b7"></polygon><polygon points="373.4 138.47 389.64 142.2 383.83 150.6 373.4 138.47" fill="#97a6b7"></polygon><polygon points="384.25 222.34 400.54 226.76 393.63 233.76 384.25 222.34" fill="#97a6b7"></polygon><polygon points="335.46 330.6 351.07 335.9 355.49 323.18 335.46 330.6" fill="#97a6b7"></polygon><polygon points="263 378.16 276.91 383.48 280.05 373.06 263 378.16" fill="#97a6b7"></polygon><polygon points="186.2 390.17 173.7 385.45 187.93 371.01 186.2 390.17" fill="#97a6b7"></polygon><polygon points="118.76 363.11 104.29 357.17 118.55 345.28 118.76 363.11" fill="#97a6b7"></polygon><polygon points="84.79 77.51 100.41 80.95 92.03 91.24 84.79 77.51" fill="#97a6b7"></polygon><polygon points="30.39 194.88 44.39 199.71 45.46 187.71 30.39 194.88" fill="#97a6b7"></polygon><polygon points="45.13 286.93 58.77 291.87 61.67 282.75 45.13 286.93" fill="#97a6b7"></polygon><path d="M398.78,226.24l-20.17-3.75a146.13,146.13,0,0,0-2.2-39.86l18.9-6.68A10.25,10.25,0,0,0,401.43,163l-4.74-14.22A10,10,0,0,0,384,142.29l-18.63,6.39a150.76,150.76,0,0,0-22.25-34.59L356,99.28a10.65,10.65,0,0,0-1.05-14.73L343.51,74.14a10.13,10.13,0,0,0-14.55.58L316.17,89.36a153.19,153.19,0,0,0-37.85-19.78L282,50.06a11.29,11.29,0,0,0-8.55-12.89l-15.56-3.66a10.27,10.27,0,0,0-12.65,8l-3.7,19.73A155,155,0,0,0,197.68,63l-7.12-19.81a11.93,11.93,0,0,0-14.42-7.39l-15.73,4.67a10.46,10.46,0,0,0-6.89,13.82l7.42,20.29a154.14,154.14,0,0,0-37.08,23.92L106.32,83.7c-5-4.19-12.42-3.9-16.63.67L78.47,96.56c-4.23,4.61-3.57,11.73,1.47,15.9l18.2,15.05a147.58,147.58,0,0,0-18.86,39.31l-24.37-4.53c-6.55-1.22-12.82,2.75-14,8.87l-3,16.27c-1.15,6.11,3.27,12,9.84,13.16L72.79,205a146.23,146.23,0,0,0,4.65,42.54L53,255.89c-6.23,2.13-9.44,8.56-7.15,14.34l6.05,15.31c2.27,5.74,9.13,8.61,15.3,6.43L92,283.22a151.49,151.49,0,0,0,25.63,33.31l-17,19.41a10.38,10.38,0,0,0,1.42,15.33l13,9.84a12,12,0,0,0,16.16-1.87l16.88-19.52a154.35,154.35,0,0,0,38.2,15.7l-4.58,24.44a10.09,10.09,0,0,0,8.9,11.91l15.87,2a11.5,11.5,0,0,0,12.67-9.07l4.54-24.17a155.13,155.13,0,0,0,40.21-4.62l8.1,22.15a10.07,10.07,0,0,0,13.39,5.62l14.42-5.75a10.74,10.74,0,0,0,6.33-13.4l-7.82-21.74a153.67,153.67,0,0,0,32.5-22.87L348,334.14a10.09,10.09,0,0,0,14.19-1.64l9.6-11.64a10.17,10.17,0,0,0-1-14.23l-16.57-14a147.59,147.59,0,0,0,17.32-35.44l20.75,3.62a10.11,10.11,0,0,0,11.54-8.25L406.56,238A10,10,0,0,0,398.78,226.24ZM213,315.87c-60.06-9-101.28-64.64-90.13-124s69.87-96.93,129.24-84.28c57.35,12.22,93.95,67,83.48,122.81S271,324.55,213,315.87Z" fill="#d8dee8"></path></g><g opacity="0.44"><path d="M244.05,237a7.09,7.09,0,0,0,9.37-3.48c1.83-3.61.62-7.92-2.72-9.61-.18-.09-.35-.17-.53-.24a41.73,41.73,0,0,0,1.4-6,5.62,5.62,0,0,0,.58,0,7.68,7.68,0,0,0,6.75-7.82,6.51,6.51,0,0,0-7-6.59c-.2,0-.39.05-.59.09a37.55,37.55,0,0,0-1.63-5.76c.18-.11.35-.21.52-.33a7.68,7.68,0,0,0,2.33-10.06,6.5,6.5,0,0,0-9.47-1.8c-.17.12-.33.24-.48.37a34.38,34.38,0,0,0-4.23-3.94c.11-.18.21-.36.31-.55,1.83-3.61,4.23-7.56.87-9.2-7.79-3.8-11.13-.55-13,3.07a5.69,5.69,0,0,0-.26.56,34.68,34.68,0,0,0-5.68-1.08,4.1,4.1,0,0,0,0-.61c-.08-4,1.1-6.13-2.72-6.2-8.34-.16-11.15,3.46-11.07,7.43,0,.21,0,.41,0,.62a38.23,38.23,0,0,0-5.61,2.08l-.28-.53a6.51,6.51,0,0,0-9.47-1.79,7.67,7.67,0,0,0-2.33,10.06,5.72,5.72,0,0,0,.32.48,42.55,42.55,0,0,0-4,4.69l-.5-.29a7.36,7.36,0,0,0-6.65,13.09c.18.09.35.17.53.24a41.73,41.73,0,0,0-1.4,6,5.72,5.72,0,0,0-.58,0,7.68,7.68,0,0,0-6.75,7.82,6.5,6.5,0,0,0,7,6.59c.2,0,.39-.05.59-.09a38.71,38.71,0,0,0,1.63,5.76c-.18.11-.35.21-.52.33a7.69,7.69,0,0,0-2.33,10.07c2,3.27,8.51,4.79,11.77,2.51.17-.12-2-1-1.81-1.09a33.59,33.59,0,0,0,4.22,3.94c-.11.18-.21.36-.31.55a6.8,6.8,0,1,0,12.09,6.13,5.69,5.69,0,0,0,.26-.56,34.68,34.68,0,0,0,5.68,1.08c0,.2,0,.4,0,.61a6.5,6.5,0,0,0,7,6.58,7.66,7.66,0,0,0,6.75-7.81c0-.21,0-.41,0-.62a38.23,38.23,0,0,0,5.61-2.08c.09.18.18.36.28.53a6.51,6.51,0,0,0,9.48,1.79,7.67,7.67,0,0,0,2.32-10.06,5.72,5.72,0,0,0-.32-.48,42.55,42.55,0,0,0,4-4.69Zm-41.61.52c-12.12-6.15-16.55-21.78-9.89-34.9s21.9-18.78,34-12.62,16.54,21.78,9.88,34.9S214.56,243.67,202.44,237.51Z" fill="url(#linear-gradient-4)"></path><path d="M252.15,217.61a7.68,7.68,0,0,0,6.75-7.82,6.5,6.5,0,0,0-7-6.59c-.2,0-.39.05-.59.09a37.55,37.55,0,0,0-1.63-5.76,5.69,5.69,0,0,0,.52-.33c3.26-2.28,7.29-7.8,5-10.85-4.36-5.8-8.88-3.29-12.13-1-.17.12-.33.24-.48.37a34.38,34.38,0,0,0-4.23-3.94c.11-.18.21-.36.31-.55a7.57,7.57,0,0,0,.43-6q-4.73,8.31-9.31,16.7c9.67,7.09,12.75,21.05,6.71,32.95-5.12,10.09-15.31,15.76-25.25,15.05-.44,1.15-.88,2.3-1.35,3.44-1.29,3.09-2.75,6.12-4.22,9.14.92.18,1.85.31,2.78.41,0,.2,0,.4,0,.61.08,4,2.5,7.35,9.4,7,3.82-.2,4.47-4.24,4.39-8.22,0-.21,0-.41,0-.62a38.23,38.23,0,0,0,5.61-2.08c.09.18.18.36.28.53,2,3.27,8.82,4.66,12.08,2.38s1.7-7.38-.28-10.65a5.72,5.72,0,0,0-.32-.48,42.55,42.55,0,0,0,4-4.69l.5.29a7.09,7.09,0,0,0,9.37-3.48c1.83-3.61.62-7.92-2.72-9.61-.18-.09-.35-.17-.53-.24a41.73,41.73,0,0,0,1.4-6A5.62,5.62,0,0,0,252.15,217.61Z" fill="url(#linear-gradient-5)"></path><path d="M247.64,237.39a7.36,7.36,0,0,0,6.65-13.09l-.53-.23a41.73,41.73,0,0,0,1.4-6,5.62,5.62,0,0,0,.58,0,7.68,7.68,0,0,0,6.75-7.82,6.5,6.5,0,0,0-7-6.59c-.2,0-.39,0-.59.09a37.55,37.55,0,0,0-1.63-5.76c.18-.11.35-.21.52-.33a7.69,7.69,0,0,0,2.33-10.07,6.5,6.5,0,0,0-9.47-1.79,4.37,4.37,0,0,0-.48.37,35.25,35.25,0,0,0-4.23-4c.11-.17.21-.35.31-.54,1.83-3.61.62-7.92-2.72-9.61a7.07,7.07,0,0,0-9.37,3.47c-.1.19-.18.38-.26.57a34.77,34.77,0,0,0-5.67-1.08c0-.2,0-.4,0-.61a6.51,6.51,0,0,0-7-6.59,7.68,7.68,0,0,0-6.75,7.82,6,6,0,0,0,0,.61,39.92,39.92,0,0,0-5.61,2.09c-.09-.18-.18-.36-.28-.53a6.5,6.5,0,0,0-9.47-1.79A7.68,7.68,0,0,0,192.76,186a5.72,5.72,0,0,0,.32.48,42.55,42.55,0,0,0-4,4.69l-.5-.29A7.36,7.36,0,0,0,181.9,204c.17.09.34.16.52.24a41.73,41.73,0,0,0-1.4,6,5.72,5.72,0,0,0-.58,0,7.68,7.68,0,0,0-6.75,7.82,6.5,6.5,0,0,0,7,6.58,3.81,3.81,0,0,0,.59-.08,38.71,38.71,0,0,0,1.63,5.76c-.17.1-.35.21-.52.33a7.68,7.68,0,0,0-2.33,10.06,6.51,6.51,0,0,0,9.48,1.8l.48-.37a34.29,34.29,0,0,0,4.22,3.94l-.31.54a6.8,6.8,0,1,0,12.09,6.14,4.94,4.94,0,0,0,.26-.57,33.68,33.68,0,0,0,5.68,1.09c0,.2,0,.4,0,.61a6.5,6.5,0,0,0,7,6.58,7.68,7.68,0,0,0,6.75-7.81c0-.21,0-.42,0-.62a38.23,38.23,0,0,0,5.61-2.08c.09.18.18.35.28.52a6.51,6.51,0,0,0,9.48,1.8,7.68,7.68,0,0,0,2.33-10.06q-.17-.25-.33-.48a42.4,42.4,0,0,0,4-4.69C247.31,237.21,247.47,237.31,247.64,237.39Zm-41.61.53c-12.12-6.15-16.55-21.78-9.88-34.9s21.89-18.78,34-12.62,16.54,21.78,9.88,34.9S218.15,244.08,206,237.92Z" fill="url(#linear-gradient-6)"></path></g><path d="M589.27,632.28a27.93,27.93,0,0,1-18.51-21L557,543.17l-117.69,4.18-14.48,70.93c-2,9.94,6.09,19.9,15.44,23.56l49.24,19.27a64,64,0,0,0,28.79,4.17l104.05-8.9a6.45,6.45,0,0,0,5.84-5.72c.35-3.07,2.49-6.51-.42-7.47Z" fill="#97a6b7"></path><path d="M590.43,628.13a27.66,27.66,0,0,1-18.49-20.75L558.2,540.14l-114.82,4.14-14.47,70a20.49,20.49,0,0,0,12.67,23.26l49.19,19a64.58,64.58,0,0,0,28.76,4.12l104-8.79a6.41,6.41,0,0,0,1.45-12.48Z" fill="url(#linear-gradient-7)"></path><path d="M778.37,495.82V190.5a12,12,0,0,0-11.48-11.84L242.34,157.57c-8-.32-14.53,5.2-14.53,12.26V507.26Z" fill="url(#linear-gradient-8)"></path><path d="M244,216.79V480.37c0,6.58,6.08,11.79,13.5,11.57l497.82-14.15a11.14,11.14,0,0,0,10.8-11V231.73Z" fill="#fff"></path><path d="M766.15,231.73v-27a11,11,0,0,0-10.57-10.84L257.25,175.32C250,175.05,244,180.1,244,186.54v30.25Z" fill="url(#linear-gradient-9)"></path><path d="M280.46,196.27a4.22,4.22,0,0,1-4.62,3.95,4.56,4.56,0,0,1-4.62-4.26,4.21,4.21,0,0,1,4.62-4A4.57,4.57,0,0,1,280.46,196.27Z" fill="#9d3060"></path><path d="M300.35,196.92a4.18,4.18,0,0,1-4.56,3.93,4.52,4.52,0,0,1-4.58-4.23,4.18,4.18,0,0,1,4.58-3.93A4.52,4.52,0,0,1,300.35,196.92Z" fill="#9d3060"></path><path d="M320,197.57a4.14,4.14,0,0,1-4.5,3.91,4.48,4.48,0,0,1-4.52-4.21,4.13,4.13,0,0,1,4.52-3.91A4.47,4.47,0,0,1,320,197.57Z" fill="#9d3060"></path><path d="M227.81,507.26v67.38c0,7.07,6.55,12.57,14.53,12.23l524.55-22.18a12.06,12.06,0,0,0,11.48-11.86v-59Z" fill="url(#linear-gradient-10)"></path><polygon points="571.5 364.51 282.26 366.08 282.26 245.3 571.5 250.56 571.5 364.51" fill="url(#linear-gradient-11)"></polygon><polygon points="734.83 363.63 588.47 364.42 588.47 250.87 734.83 253.54 734.83 363.63" fill="url(#linear-gradient-12)"></polygon><polygon points="734.83 445.34 282.26 455.73 282.26 381.85 734.83 378 734.83 445.34" fill="url(#linear-gradient-13)"></polygon><g opacity="0.48" style="mix-blend-mode:soft-light"><path d="M721.56,456.4c-43.09-14.55-78.73,15.13-109.7-8.24-34.91-26.34-6.69-77-39-106.78C528,300,438.32,364.2,399.37,325.15c-26.78-26.85,4.81-69.84-17.87-115-11.53-23-33.14-38.67-59.36-49.32l-79.8-3.21c-8-.32-14.53,5.2-14.53,12.26V574.64c0,7.07,6.55,12.57,14.53,12.23l524.55-22.18a12.06,12.06,0,0,0,11.48-11.86V509.26C759.9,476.6,739.51,462.47,721.56,456.4Z" fill="#fff"></path></g><path d="M641.27,718.52,30,713.19v15.75c0,4.28,2.67,7.91,6.28,8.56l172.85,31a23.44,23.44,0,0,0,6.2.29l419.31-35.36c3.74-.32,6.64-4,6.64-8.36Z" fill="url(#linear-gradient-14)"></path><path d="M444.49,693,36.72,721.8a12.15,12.15,0,0,1-13.23-12.24V418.05a13.21,13.21,0,0,1,13.23-13.18H444.49c6,0,10.87,5.34,10.87,11.91V680.3C455.36,686.88,450.5,692.56,444.49,693Z" fill="url(#linear-gradient-15)"></path><path d="M451,693,43.22,721.8A12.16,12.16,0,0,1,30,709.56V418.05a13.22,13.22,0,0,1,13.23-13.18H451c6,0,10.88,5.34,10.88,11.91V680.3C461.87,686.88,457,692.56,451,693Z" fill="url(#linear-gradient-16)"></path><path d="M438.29,674.4l-379.8,25a10,10,0,0,1-10.76-10V434.17a10.82,10.82,0,0,1,10.76-10.8l379.8-1.57c5,0,9,4.35,9,9.76V664C447.26,669.42,443.25,674.07,438.29,674.4Z" fill="#fff"></path><path d="M261.51,412.85a4.7,4.7,0,1,1-4.69-4.9A4.82,4.82,0,0,1,261.51,412.85Z" fill="#fff"></path><path d="M440.82,691.67,30,722l179.13,32.14a23.44,23.44,0,0,0,6.2.29l426-35.92L447.36,691.88A31.11,31.11,0,0,0,440.82,691.67Z" fill="url(#linear-gradient-17)"></path><polygon points="89.94 722.77 431.96 697.14 537.82 711.56 198.74 738.96 89.94 722.77" opacity="0.3" fill="url(#linear-gradient-18)" style="mix-blend-mode:multiply"></polygon><path d="M447.31,471.15l-399.63,5V431a9.17,9.17,0,0,1,9.17-9.16H438.14a9.17,9.17,0,0,1,9.17,9.16Z" fill="url(#linear-gradient-19)"></path><polygon points="298.23 592.09 72.28 601.42 72.28 494.7 298.23 490.91 298.23 592.09" fill="url(#linear-gradient-20)"></polygon><polygon points="426.78 586.78 311.55 591.54 311.55 490.69 426.78 488.75 426.78 586.78" fill="url(#linear-gradient-21)"></polygon><polygon points="426.78 659.54 72.28 680.64 72.28 615.36 426.78 599.58 426.78 659.54" fill="url(#linear-gradient-22)"></polygon><path d="M76.34,447a5.35,5.35,0,0,1-5.53,5.09,5.28,5.28,0,0,1-5.55-5A5.36,5.36,0,0,1,70.81,442,5.29,5.29,0,0,1,76.34,447Z" fill="#9d3060"></path><path d="M96.34,446.91A5.31,5.31,0,0,1,90.86,452a5.24,5.24,0,0,1-5.49-5,5.31,5.31,0,0,1,5.49-5.07A5.24,5.24,0,0,1,96.34,446.91Z" fill="#9d3060"></path><path d="M116.16,446.8a5.27,5.27,0,0,1-5.43,5,5.21,5.21,0,0,1-5.45-5,5.27,5.27,0,0,1,5.45-5A5.19,5.19,0,0,1,116.16,446.8Z" fill="#9d3060"></path><path d="M352.75,613c-31.44-16.91-56.15,4.52-80-16.63-14.46-12.82-7.36-22.38-25.16-41.54-19.71-21.22-32.54-14.08-52.35-33.18-25-24.15-12.51-42.93-34.09-60.27-26.17-21-54.4-1.57-79.31-21.74-10.74-8.7-16.64-21.34-19.72-34.8H37.73A7.75,7.75,0,0,0,30,412.61V714.78A7.11,7.11,0,0,0,37.73,722l415.59-29.49a6.71,6.71,0,0,0,5-3.07c-30.42-1.11-49.11-11.3-61.06-21.85C373.9,646.93,378,626.59,352.75,613Z" fill="#fff" opacity="0.48" style="mix-blend-mode:soft-light"></path><path d="M745.36,409.82l24,255.11a6.84,6.84,0,0,1-5.91,7.66L638.23,685.35c-7.66.4-11.72-3.71-12.07-7.84l-22.83-270.9c-.34-4,3.46-7.54,11-7.47l123.86,3.7A7.75,7.75,0,0,1,745.36,409.82Z" fill="url(#linear-gradient-23)"></path><path d="M750.91,409.43l24.28,256.41a6.89,6.89,0,0,1-5.93,7.71L639.41,685.4a7.48,7.48,0,0,1-8-6.87L608.31,406.2a6.42,6.42,0,0,1,6.72-7.08l128.68,3.3A7.79,7.79,0,0,1,750.91,409.43Z" fill="url(#linear-gradient-24)"></path><path d="M748.16,423.34,770.62,661.2a6.42,6.42,0,0,1-5.55,7.18L643,679.23a7,7,0,0,1-7.48-6.41L614.13,421.1a6,6,0,0,1,6.24-6.64l121.06,2.35A7.23,7.23,0,0,1,748.16,423.34Z" fill="#fff"></path><path d="M748.16,423.34a7.23,7.23,0,0,0-6.73-6.53l-121.06-2.35a6,6,0,0,0-6.24,6.64l3,35.85,134.31,1.57Z" fill="url(#linear-gradient-25)"></path><path d="M684.18,408.69a2.12,2.12,0,0,1-2.17,2.39,2.77,2.77,0,0,1-2.61-2.49,2.12,2.12,0,0,1,2.18-2.38A2.76,2.76,0,0,1,684.18,408.69Z" fill="url(#linear-gradient-26)"></path><polygon points="701.38 554.83 640.3 556.58 631.69 470.73 693.08 471.24 701.38 554.83" fill="url(#linear-gradient-27)"></polygon><polygon points="745.93 553.55 710.69 554.56 702.44 471.32 737.86 471.61 745.93 553.55" fill="url(#linear-gradient-28)"></polygon><polygon points="752.45 619.81 647.26 625.98 641.42 567.77 746.98 564.24 752.45 619.81" fill="url(#linear-gradient-29)"></polygon><polygon points="755.87 654.46 650.91 662.28 648.29 636.15 753.41 629.51 755.87 654.46" fill="url(#linear-gradient-30)"></polygon><g opacity="0.48" style="mix-blend-mode:soft-light"><path d="M721.06,584.4c-12.68-43.75-49.36-40.21-60.5-80-9.16-32.69,11.71-49-1-76.5-6-12.94-16.48-22-27.38-28.34L615,399.12a6.42,6.42,0,0,0-6.72,7.08l23.05,272.33a7.48,7.48,0,0,0,8,6.87l106.86-9.75a111.85,111.85,0,0,1-17.71-31.75C719,617.14,728.06,608.58,721.06,584.4Z" fill="#fff"></path></g><path d="M124,589.67a8.59,8.59,0,0,1,.59-1.94q18.66-31.66,37.34-63.29c.23-.38.5-.74.89-1.32l29.68,37.27,13.75-17.32c.56.69,1,1.19,1.41,1.73q14.43,19.53,28.84,39.08a12.4,12.4,0,0,1,1.07,2.23Z" fill="#fff"></path><path d="M227,515.43c.27,7.34-5.09,13.54-12,13.84s-12.77-5.45-13.05-12.75,5.12-13.56,12-13.84S226.74,508.14,227,515.43Z" fill="#fff"></path><path d="M372.65,348.86a9.15,9.15,0,0,1,.61-2q18.69-31.72,37.42-63.42c.23-.38.5-.73.89-1.31l28.74,38.67L454,303.59c.55.71,1,1.23,1.37,1.79q14,20.24,27.9,40.49a15,15,0,0,1,1,2.3Z" fill="#fff"></path><path d="M474.71,276c.19,7.48-5.16,13.65-11.93,13.77s-12.48-5.88-12.67-13.31,5.17-13.66,11.93-13.77S474.53,268.58,474.71,276Z" fill="#fff"></path><path d="M641.42,531.21a5.2,5.2,0,0,1,.29-.92l17.5-29.66c.11-.17.23-.34.42-.61l13.44,18.09,6.41-8.07c.26.33.46.57.64.83q6.52,9.46,13,18.94a7.53,7.53,0,0,1,.48,1.08Z" fill="#fff"></path><path d="M689.16,497.13c.08,3.5-2.42,6.39-5.58,6.44s-5.84-2.74-5.93-6.22,2.42-6.39,5.58-6.44A6.15,6.15,0,0,1,689.16,497.13Z" fill="#fff"></path><path d="M199.92,224.88c-.1-5.78-4.15-10.78-9.12-11.18L11.28,199.3l-.59,0a10.21,10.21,0,0,0-8.81,4.51A11.34,11.34,0,0,0,0,210.25v8.52H0L.16,354a12.88,12.88,0,0,0,.17,2.43c0,.2.06.39.1.58a11.73,11.73,0,0,0,7.75,8.41,10.89,10.89,0,0,0,3.44.5l139.54-2.74h0l41.93-.85c5-.1,9-5,8.86-10.88l-1.91-119h0Z" fill="#b7c0ce"></path><path d="M195.86,213.83,15.51,199.39c-6.32-.51-11.47,4.4-11.46,11l.2,144a11.67,11.67,0,0,0,11.63,12l182.34-3.56c5-.1,9-5,8.93-10.88L205.06,225C205,219.25,200.86,214.23,195.86,213.83Z" fill="#fff"></path><path d="M15.88,362.48A8,8,0,0,1,8,354.36L7.73,210.62a7.24,7.24,0,0,1,7.78-7.47l180.41,14c3.4.26,6.2,3.69,6.27,7.63l2.07,127.11c.06,4-2.66,7.35-6.09,7.41Z" fill="#f4f7fa"></path><path d="M195.86,213.83,15.51,199.39c-6.32-.51-11.47,4.4-11.46,11v8.54l201.12,13.67-.12-7.53C205,219.25,200.86,214.23,195.86,213.83Z" fill="#d8dee8"></path><path d="M24.42,210.71a3.45,3.45,0,0,1-3.69,3.58A4.17,4.17,0,0,1,17,210.16a3.45,3.45,0,0,1,3.71-3.58A4.14,4.14,0,0,1,24.42,210.71Z" fill="#fff"></path><path d="M37.29,211.65a3.41,3.41,0,0,1-3.63,3.56A4.11,4.11,0,0,1,30,211.12a3.42,3.42,0,0,1,3.64-3.56A4.11,4.11,0,0,1,37.29,211.65Z" fill="#fff"></path><path d="M50,212.59a3.37,3.37,0,0,1-3.57,3.53,4.07,4.07,0,0,1-3.63-4.06,3.37,3.37,0,0,1,3.59-3.53A4.08,4.08,0,0,1,50,212.59Z" fill="#fff"></path><polygon points="196.07 323.45 17.7 322.24 17.5 242.68 194.96 252.32 196.07 323.45" fill="url(#linear-gradient-31)"></polygon><polygon points="196.27 335.81 17.73 336.06 17.71 329.92 196.18 330.32 196.27 335.81" fill="#d8dee8"></polygon><polygon points="196.48 349.29 17.77 351.15 17.75 345 196.39 343.79 196.48 349.29" fill="#d8dee8"></polygon><polygon points="114.75 235.62 17.47 229.57 17.49 235.62 114.8 241.32 114.75 235.62" fill="#d8dee8"></polygon><polygon points="185.06 239.99 185.15 245.44 194.86 246.01 194.77 240.59 185.06 239.99" fill="#d8dee8"></polygon><g opacity="0.3" style="mix-blend-mode:soft-light"><path d="M128.34,282c-21.36-33.17-58.18-24-82-61.2A84.77,84.77,0,0,1,37,201.11l-21.52-1.72c-6.32-.51-11.47,4.4-11.46,11l.2,144a11.67,11.67,0,0,0,11.63,12l140.17-2.74a129.7,129.7,0,0,1-11.24-21.27C132.26,312.05,141.18,302,128.34,282Z" fill="#fff"></path></g><g opacity="0.43"><path d="M70.16,314.83a5.45,5.45,0,0,1,.39-1.26Q82.7,293.13,95,272.46c.15-.25.33-.48.59-.86l20.28,25.74L125.23,286c.4.48.71.83,1,1.21q10.13,13.67,20.4,27.57a10,10,0,0,1,.77,1.57Z" fill="#fff"></path><path d="M139.44,267.64a8.51,8.51,0,0,1-8.24,9.17,9.26,9.26,0,0,1-9.09-8.9,8.51,8.51,0,0,1,8.17-9.15A9.25,9.25,0,0,1,139.44,267.64Z" fill="#fff"></path></g></g></g></g></svg>